<?xml version="1.0" standalone="no"?>
<!DOCTYPE svg PUBLIC "-//W3C//DTD SVG 20010904//EN"
 "http://www.w3.org/TR/2001/REC-SVG-20010904/DTD/svg10.dtd">
<svg version="1.0" xmlns="http://www.w3.org/2000/svg"
 width="894.000000pt" height="966.000000pt" viewBox="0 0 894.000000 966.000000"
 preserveAspectRatio="xMidYMid meet">

<g transform="translate(0.000000,966.000000) scale(0.100000,-0.100000)"
fill="#000000" stroke="none">
<path d="M1120 9644 c84 -22 276 -23 320 -2 34 17 30 17 -170 17 -197 -1 -203
-2 -150 -15z"/>
<path d="M5880 8646 c-116 -21 -208 -68 -292 -150 -79 -77 -21 -77 93 -1 96
65 120 72 259 85 122 12 176 6 245 -26 60 -27 88 -52 142 -124 58 -79 96 -157
188 -393 65 -168 149 -273 261 -324 31 -14 70 -25 87 -26 42 -1 107 12 107 21
0 4 -22 15 -50 25 -56 20 -67 30 -154 141 -90 115 -147 208 -200 326 -86 190
-105 224 -154 285 -57 72 -120 115 -209 144 -83 28 -223 35 -323 17z"/>
<path d="M5335 8321 c-146 -12 -230 -83 -217 -184 2 -17 20 -45 43 -68 21 -21
39 -46 39 -54 0 -9 -19 -41 -42 -72 -99 -130 -138 -190 -163 -252 -15 -36 -35
-84 -44 -106 -101 -226 -122 -334 -76 -380 29 -30 45 -31 71 -6 24 21 35 47
64 148 23 79 28 82 84 36 70 -58 297 -141 408 -150 89 -7 99 3 41 38 -21 13
-40 26 -43 30 -9 12 -127 69 -144 69 -8 0 -17 4 -20 9 -3 4 -38 18 -78 31
-108 33 -176 60 -189 76 -23 27 16 125 113 287 64 106 98 178 98 206 0 10 9
26 20 36 17 15 30 17 96 11 117 -11 211 -63 359 -199 33 -31 178 -124 205
-132 14 -4 30 -11 35 -15 15 -12 121 -30 174 -30 63 0 130 34 147 76 8 18 14
43 14 54 0 27 31 26 49 -2 29 -46 58 -115 75 -178 50 -188 136 -324 240 -378
49 -25 57 -26 171 -22 256 9 231 13 410 -73 255 -122 292 -124 585 -21 69 24
161 55 205 69 94 30 133 50 157 79 41 50 16 67 -126 86 -43 5 -82 12 -86 15
-4 3 -86 14 -182 25 -95 11 -196 27 -225 35 -48 14 -164 82 -188 109 -5 7 -50
44 -98 83 -91 74 -145 97 -208 91 -45 -4 -47 -36 -4 -57 41 -20 162 -121 261
-218 113 -111 215 -158 368 -169 64 -5 85 -11 94 -24 10 -16 1 -21 -83 -49
-146 -48 -251 -39 -392 35 -38 19 -102 49 -143 66 -70 28 -85 30 -235 34 -111
3 -173 9 -203 20 -68 25 -152 143 -195 274 -64 195 -158 319 -265 351 -26 7
-67 34 -103 66 -65 58 -97 76 -204 118 -38 15 -104 42 -145 60 -277 123 -259
118 -355 120 -49 2 -126 0 -170 -4z m116 -51 c41 -16 86 -37 101 -45 14 -8 31
-15 37 -15 6 0 46 -20 89 -43 43 -24 87 -46 98 -50 133 -41 332 -138 381 -185
58 -55 70 -120 29 -148 -54 -35 -180 15 -361 143 -213 151 -351 212 -482 213
-98 0 -129 30 -77 73 14 12 40 36 57 53 18 18 37 32 43 33 6 0 44 -12 85 -29z"/>
<path d="M5998 7363 c-31 -38 -79 -124 -147 -265 -39 -81 -71 -150 -71 -153 0
-3 -44 -95 -98 -203 -54 -108 -123 -253 -152 -322 -67 -155 -89 -191 -143
-231 -55 -42 -119 -121 -148 -184 -35 -77 -32 -171 8 -256 28 -61 66 -109 85
-109 4 0 8 27 8 60 0 36 12 100 30 163 17 58 30 111 30 119 0 22 52 84 104
124 35 27 55 53 85 117 52 111 71 154 71 161 0 3 9 25 20 49 21 45 69 160 157
377 30 74 58 144 63 155 11 24 42 109 80 220 26 73 49 195 38 195 -3 0 -12 -8
-20 -17z"/>
<path d="M5001 7148 l-94 -32 -60 22 c-70 25 -89 18 -67 -24 32 -59 114 -69
240 -28 l79 25 39 -20 c94 -48 70 -194 -51 -325 -40 -42 -49 -48 -74 -42 -43
11 -70 32 -77 61 -17 65 -50 137 -69 150 -12 7 -47 16 -77 20 -45 5 -60 12
-82 38 -16 17 -28 43 -28 57 0 48 -15 52 -38 11 -27 -47 -28 -104 -4 -151 20
-41 53 -60 104 -60 42 0 61 -21 73 -80 11 -54 50 -114 87 -132 111 -55 172
-62 236 -29 70 36 146 168 158 275 8 73 -11 172 -41 218 -28 42 -91 78 -135
77 -14 0 -67 -14 -119 -31z"/>
<path d="M5506 6956 c-29 -31 -108 -180 -151 -286 -10 -25 -92 -195 -182 -379
-90 -183 -182 -374 -204 -425 -23 -50 -47 -106 -55 -124 -29 -64 -54 -148 -60
-202 -3 -30 -9 -66 -14 -80 -5 -14 -11 -46 -15 -72 -8 -62 12 -65 40 -5 10 23
32 58 47 78 15 20 28 41 28 47 0 6 4 12 8 14 10 4 83 145 112 218 13 30 35 82
50 115 15 33 35 80 46 105 10 25 28 62 41 82 13 21 23 40 23 42 0 2 29 64 64
138 168 351 262 595 273 711 7 68 -4 73 -51 23z"/>
<path d="M4582 6767 c-55 -67 -109 -180 -118 -245 -6 -44 -3 -57 20 -97 15
-25 30 -45 34 -45 4 0 25 -16 45 -35 25 -23 57 -41 98 -52 87 -24 94 -37 85
-171 -7 -128 -18 -171 -53 -212 -20 -25 -32 -30 -57 -28 -34 3 -35 9 -21 108
5 36 2 52 -14 77 -23 36 -32 39 -144 48 -76 7 -113 24 -104 49 19 51 19 56 -6
56 -28 0 -88 -57 -99 -92 -3 -13 -6 -39 -7 -59 -1 -30 5 -43 34 -68 21 -18 47
-31 63 -31 65 0 70 -6 74 -83 4 -88 21 -114 101 -157 48 -26 69 -32 130 -33
63 -1 80 3 119 26 111 65 168 191 168 370 -1 217 -74 317 -232 323 -38 2 -72
6 -78 9 -10 6 -7 26 15 105 61 212 63 231 27 273 -23 26 -33 21 -80 -36z"/>
<path d="M4753 6594 c-7 -3 -13 -15 -13 -27 0 -36 56 -66 141 -76 80 -10 183
0 142 14 -13 4 -23 11 -23 15 0 4 -37 22 -82 40 -83 32 -142 44 -165 34z"/>
<path d="M4277 5810 c-25 -27 -50 -50 -55 -50 -6 0 -20 13 -31 29 -26 36 -72
55 -108 46 -47 -11 -110 -89 -133 -162 -27 -88 -27 -223 0 -223 5 0 20 24 33
54 39 84 135 171 168 150 15 -9 11 -21 -67 -182 -42 -86 -88 -182 -102 -212
-14 -30 -30 -64 -35 -75 -33 -65 -62 -295 -39 -309 16 -10 137 136 184 221 57
104 70 107 87 18 19 -96 90 -193 159 -216 50 -16 114 -3 163 34 23 18 50 38
60 45 13 10 23 11 38 2 28 -15 26 -45 -6 -111 -19 -38 -28 -72 -29 -114 -1
-33 -3 -63 -3 -67 -1 -5 -34 -8 -73 -8 -119 0 -153 -32 -177 -167 -7 -38 -35
-109 -75 -190 -83 -166 -100 -224 -101 -343 l0 -95 -78 -5 c-63 -4 -82 -9 -93
-24 -20 -28 -18 -44 9 -66 48 -42 93 -88 125 -128 62 -79 139 -98 226 -57 32
15 56 33 56 42 0 8 -11 29 -25 45 -24 29 -26 63 -5 78 4 3 37 45 74 94 74 99
110 168 161 313 27 75 43 104 67 125 72 60 77 66 71 87 -6 25 -58 71 -79 71
-58 0 -147 -90 -231 -234 -23 -38 -15 41 11 124 14 41 27 97 31 123 4 29 15
57 27 69 19 19 29 20 104 15 51 -4 86 -2 90 4 3 5 -4 26 -15 45 -29 48 -27 57
17 81 47 27 119 89 111 97 -3 3 -19 2 -35 -3 -52 -14 -55 -8 -48 88 7 96 -2
127 -50 168 -28 24 -34 61 -14 81 21 21 77 14 103 -13 22 -21 25 -33 25 -96 0
-39 7 -99 15 -133 18 -70 71 -185 94 -203 33 -26 108 -12 139 26 32 39 107
218 171 409 78 234 93 302 67 302 -16 0 -86 -60 -86 -73 0 -4 -18 -36 -39 -71
-22 -35 -50 -86 -62 -113 -109 -242 -193 -364 -220 -321 -10 15 -1 57 15 78
52 66 48 207 -8 268 -34 38 -74 55 -115 48 -85 -15 -81 -17 -111 55 -35 88
-79 161 -91 154 -5 -4 -9 -19 -9 -35 0 -16 -4 -39 -9 -52 -5 -13 -17 -50 -27
-83 -22 -76 -46 -125 -73 -149 -22 -20 -22 -20 -44 2 -19 19 -22 33 -21 95 0
82 22 138 80 206 43 49 42 75 -3 79 -31 3 -68 -10 -133 -48 -34 -20 -35 -20
-38 -1 -2 11 15 61 36 113 72 168 91 242 73 277 -18 33 -46 25 -94 -29z m83
-1741 c0 -86 -44 -279 -65 -286 -16 -5 -95 57 -95 75 0 8 29 58 64 111 35 53
67 106 71 119 10 36 25 25 25 -19z"/>
<path d="M3075 5643 c-193 -15 -532 -89 -705 -153 -47 -18 -97 -35 -111 -40
-52 -16 -257 -121 -334 -172 -96 -63 -272 -200 -335 -260 -187 -178 -374 -482
-405 -660 -43 -244 105 -378 420 -378 81 0 107 -3 119 -16 32 -31 16 -109 -49
-249 -38 -83 -102 -233 -136 -319 -37 -97 -59 -202 -52 -251 14 -104 91 -137
171 -73 39 32 72 90 54 96 -5 1 -17 9 -27 16 -18 13 -18 17 -2 90 15 66 66
221 97 291 18 42 50 146 50 164 0 10 8 29 18 41 16 19 21 20 45 9 32 -14 36
-46 10 -86 -14 -21 -17 -46 -15 -136 1 -60 5 -113 7 -117 11 -17 47 5 83 49
69 83 83 154 45 230 l-22 43 37 40 c20 22 46 55 56 73 22 38 15 71 -12 60 -9
-4 -51 -11 -92 -16 -41 -4 -87 -11 -103 -15 -37 -9 -53 7 -60 59 -7 48 -52 97
-90 97 -69 1 -215 23 -263 40 -137 48 -176 125 -143 281 18 81 175 347 276
467 47 55 192 184 298 264 110 84 340 215 442 252 21 7 76 28 123 45 184 69
481 151 546 151 18 0 63 6 101 14 37 8 101 18 140 22 73 7 107 24 81 40 -14 9
-183 14 -263 7z"/>
<path d="M4728 5618 c-18 -32 -38 -98 -38 -127 l0 -25 19 21 c19 20 49 138 38
149 -3 3 -11 -5 -19 -18z"/>
<path d="M3478 5624 c-16 -16 -7 -37 32 -71 59 -54 84 -125 84 -243 0 -107
-12 -149 -139 -480 -27 -71 -59 -148 -107 -260 -27 -63 -54 -124 -58 -135 -21
-49 -96 -212 -165 -360 -50 -107 -124 -280 -175 -410 -17 -44 -35 -89 -40
-100 -33 -78 -123 -349 -156 -471 -44 -166 -32 -403 26 -528 20 -42 56 -84 64
-75 2 2 -1 31 -7 65 -9 52 -7 74 11 151 12 50 31 113 43 139 20 47 38 101 109
334 17 58 65 191 106 295 42 105 81 206 88 225 32 84 46 120 75 196 17 44 31
84 31 87 0 4 11 31 25 61 14 30 25 57 25 60 0 3 20 49 45 102 25 53 45 99 45
104 0 4 7 13 15 20 8 7 15 20 15 29 0 19 58 161 71 176 5 5 9 15 9 23 0 8 6
28 13 45 23 54 135 408 153 482 11 44 18 114 18 190 1 109 -1 125 -25 175 -28
60 -74 118 -119 150 -29 21 -100 36 -112 24z"/>
<path d="M3280 5402 c-29 -23 -20 -62 14 -62 40 0 59 -32 51 -87 -9 -65 -40
-113 -132 -209 -131 -136 -237 -213 -475 -346 -87 -48 -160 -88 -162 -88 -2 0
-47 -20 -100 -45 -53 -25 -99 -45 -101 -45 -3 0 -53 -20 -111 -45 -259 -111
-467 -152 -526 -105 -42 32 -53 73 -39 132 15 55 11 65 -16 48 -50 -31 -79
-157 -54 -233 28 -85 142 -157 248 -157 110 0 303 59 506 154 55 25 100 46
101 46 8 0 219 118 266 149 31 20 63 41 72 46 26 17 132 89 148 102 228 181
404 363 447 462 35 82 42 126 28 190 -12 57 -26 85 -50 103 -20 15 -93 8 -115
-10z"/>
<path d="M3883 4804 c-77 -31 -124 -79 -183 -186 -45 -82 -50 -87 -117 -104
-9 -2 -9 -12 0 -40 l11 -37 -57 -52 c-54 -48 -56 -52 -40 -67 10 -8 25 -17 34
-21 8 -3 23 -27 33 -54 49 -136 80 -177 165 -216 52 -23 73 -28 105 -23 57 10
132 53 177 104 87 99 169 294 169 402 0 147 -71 288 -152 305 -69 13 -87 12
-145 -11z m129 -156 c8 -14 12 -56 11 -108 -1 -93 -18 -141 -80 -231 -65 -94
-120 -120 -160 -76 -23 25 -93 164 -93 184 0 7 11 15 24 19 14 3 32 14 41 24
19 21 85 129 85 139 0 4 10 17 23 29 49 46 128 57 149 20z"/>
<path d="M3458 4070 c-40 -22 -95 -86 -120 -140 -9 -19 -22 -48 -29 -64 -9
-19 -14 -68 -14 -145 0 -114 1 -117 35 -180 61 -113 143 -171 242 -171 146 0
299 192 297 373 0 74 -27 197 -43 200 -5 1 -16 -18 -24 -43 -8 -25 -46 -87
-83 -139 -38 -51 -69 -98 -69 -103 0 -21 -42 -68 -60 -68 -27 0 -100 79 -100
107 0 27 10 29 50 8 26 -14 33 -13 63 1 18 9 39 25 46 35 14 24 33 162 25 184
-20 52 -92 36 -143 -30 -18 -25 -37 -45 -42 -45 -25 0 13 151 49 192 8 10 12
24 9 33 -8 20 -44 18 -89 -5z"/>
<path d="M3907 3519 c-11 -15 -12 -30 -5 -62 21 -95 68 -139 150 -141 49 -1
59 3 94 33 48 42 49 56 6 56 -26 0 -39 7 -55 29 -12 15 -38 46 -58 67 -31 33
-43 39 -77 39 -30 0 -45 -6 -55 -21z"/>
<path d="M3872 3353 c-20 -7 -121 -166 -141 -220 -19 -55 -37 -61 -61 -19 -47
86 -186 150 -244 113 -35 -24 -25 -40 49 -76 86 -43 109 -76 108 -155 -1 -70
-21 -130 -65 -199 -34 -53 -84 -84 -150 -93 -56 -7 -257 11 -271 25 -16 16
-57 14 -57 -2 0 -22 53 -90 96 -124 63 -49 110 -65 194 -65 175 0 303 112 354
309 9 34 16 72 16 86 0 14 4 28 9 31 14 9 40 -4 46 -24 6 -20 91 -60 128 -60
26 0 106 25 146 47 41 21 54 17 46 -14 -12 -51 -86 -226 -137 -328 -28 -55
-72 -161 -98 -235 -26 -74 -53 -148 -60 -165 -7 -16 -38 -104 -70 -195 -142
-406 -251 -672 -306 -746 -203 -274 -361 -408 -640 -544 -126 -62 -191 -73
-374 -67 -94 4 -173 12 -200 20 -126 41 -285 117 -360 172 -66 49 -182 172
-221 235 -19 30 -56 102 -83 160 -27 58 -53 113 -58 124 -54 106 -98 426 -80
581 15 132 42 258 78 374 8 25 14 62 14 83 0 34 -3 38 -25 38 -22 0 -32 -15
-83 -122 -33 -68 -67 -150 -76 -183 -10 -33 -25 -82 -33 -110 -23 -72 -23
-315 1 -465 23 -150 77 -315 164 -500 71 -154 285 -360 452 -437 243 -113 319
-134 480 -136 211 -2 355 32 537 128 180 95 312 187 406 285 89 92 182 225
236 335 48 100 136 285 161 340 71 160 180 455 259 705 50 156 51 158 90 255
35 84 90 267 96 320 4 33 13 76 20 95 7 20 16 58 19 86 7 46 5 54 -19 83 -19
21 -29 48 -34 84 -5 46 -9 52 -31 55 -14 1 -55 -13 -92 -31 -36 -19 -72 -31
-78 -27 -8 5 -10 25 -7 56 4 33 0 60 -10 82 -17 37 -23 41 -41 35z"/>
<path d="M3144 3235 c-50 -21 -56 -54 -20 -108 13 -19 22 -38 18 -41 -3 -3
-22 -6 -43 -6 -35 0 -59 -18 -59 -46 0 -4 33 -40 73 -81 39 -40 84 -87 99
-103 45 -51 134 -38 211 30 20 18 37 36 37 41 0 5 -19 9 -42 9 -71 1 -117 16
-149 50 -17 17 -28 34 -25 37 3 4 25 7 48 7 l43 1 -1 45 c-1 70 -35 136 -80
155 -54 22 -76 24 -110 10z"/>
<path d="M1428 2918 c-88 -88 -99 -175 -34 -260 56 -73 223 -186 349 -235 62
-24 85 -28 162 -27 120 2 199 26 248 74 44 45 48 84 14 145 -28 50 -93 87
-196 110 -42 9 -132 32 -201 51 -76 21 -128 30 -133 25 -22 -22 16 -84 81
-129 38 -28 182 -82 217 -82 27 0 76 -19 87 -35 29 -39 -20 -63 -82 -40 -25 9
-72 25 -105 36 -114 37 -270 127 -334 193 l-34 35 12 58 c28 129 16 148 -51
81z"/>
<path d="M1722 1218 c-31 -31 1 -108 75 -180 70 -67 188 -139 252 -155 86 -20
210 -17 244 6 24 15 26 19 12 25 -9 3 -26 7 -38 7 -22 1 -90 36 -224 113 -59
34 -209 139 -223 157 -7 9 -67 39 -78 39 -4 0 -13 -5 -20 -12z"/>
<path d="M8912 748 c5 -32 28 -35 28 -4 0 17 -5 26 -16 26 -10 0 -14 -7 -12
-22z"/>
</g>
</svg>
